<?xml version="1.0" encoding="UTF-8"?>
<svg xmlns="http://www.w3.org/2000/svg" 
     xmlns:inkscape="http://www.inkscape.org/namespaces/inkscape"
     width="200mm" 
     height="200mm" 
     viewBox="0 0 200 200">
  <g inkscape:groupmode="layer" inkscape:label="circle" id="layer_circle">
    <circle cx="50" cy="50" r="30" fill="none" stroke="red" stroke-width="1"/>
  </g>
  <g inkscape:groupmode="layer" inkscape:label="square" id="layer_square">
    <rect x="120" y="20" width="60" height="60" fill="none" stroke="blue" stroke-width="1"/>
  </g>
  <g inkscape:groupmode="layer" inkscape:label="triangle" id="layer_triangle">
    <path d="M 50,120 L 20,180 L 80,180 Z" fill="none" stroke="green" stroke-width="1"/>
  </g>
  <g inkscape:groupmode="layer" inkscape:label="ellipse" id="layer_ellipse">
    <ellipse cx="150" cy="120" rx="40" ry="25" fill="none" stroke="purple" stroke-width="1"/>
  </g>
  <g inkscape:groupmode="layer" inkscape:label="star" id="layer_star">
    <path d="M 50,150 L 55,165 L 70,165 L 58,175 L 63,190 L 50,180 L 37,190 L 42,175 L 30,165 L 45,165 Z" 
          fill="none" stroke="orange" stroke-width="1"/>
  </g>
  <g inkscape:groupmode="layer" inkscape:label="hexagon" id="layer_hexagon">
    <path d="M 120,150 L 135,140 L 150,150 L 150,170 L 135,180 L 120,170 Z" 
          fill="none" stroke="cyan" stroke-width="1"/>
  </g>
  <g inkscape:groupmode="layer" inkscape:label="line" id="layer_line">
    <line x1="20" y1="20" x2="100" y2="100" stroke="magenta" stroke-width="2"/>
  </g>
  <g inkscape:groupmode="layer" inkscape:label="polyline" id="layer_polyline">
    <polyline points="150,50 160,60 170,50 180,60 190,50" fill="none" stroke="brown" stroke-width="1"/>
  </g>
</svg>